<svg xmlns="http://www.w3.org/2000/svg" width="128" height="128" viewBox="0 0 128 128">
  <title>REMOVE</title>
  <g>
    <g>
      <circle cx="63.997" cy="64" r="39.801" fill="#c5dcf7"/>
      <circle cx="63.997" cy="64" r="31.936" fill="#e9f1f8"/>
    </g>
    <g>
      <path d="M64,22.449a41.554,41.554,0,0,0-20.536,5.422A1.75,1.75,0,1,0,45.2,30.912a38.085,38.085,0,1,1-9.864,8.066,1.75,1.75,0,1,0-2.635-2.3A41.551,41.551,0,1,0,64,22.449Z" fill="#001c5b"/>
      <path d="M38.468,35.218a1.742,1.742,0,0,0,1.122-.408q.328-.276.662-.542a1.75,1.75,0,0,0-2.187-2.733c-.243.194-.483.392-.722.591a1.75,1.75,0,0,0,1.125,3.092Z" fill="#001c5b"/>
      <path d="M83.088,87.387q-.309.251-.622.494a1.75,1.75,0,1,0,2.145,2.765c.232-.179.461-.362.687-.546a1.75,1.75,0,1,0-2.21-2.713Z" fill="#001c5b"/>
      <path d="M87.674,85.506a1.751,1.751,0,0,0,2.462-.253A33.686,33.686,0,1,0,64,97.686a33.4,33.4,0,0,0,13.851-2.971,1.75,1.75,0,0,0-1.441-3.19A30.191,30.191,0,1,1,94.186,64a30.246,30.246,0,0,1-6.764,19.044A1.751,1.751,0,0,0,87.674,85.506Z" fill="#001c5b"/>
      <path d="M79.809,48.191a1.751,1.751,0,0,0-2.475,0L64,61.525,50.666,48.191a1.75,1.75,0,0,0-2.475,2.475L61.525,64,48.191,77.334a1.75,1.75,0,0,0,2.475,2.475L79.809,50.666A1.751,1.751,0,0,0,79.809,48.191Z" fill="#001c5b"/>
      <path d="M70.15,67.676a1.749,1.749,0,0,0-2.474,2.474l9.658,9.659a1.75,1.75,0,0,0,2.475-2.475Z" fill="#001c5b"/>
    </g>
  </g>
</svg>
