<?xml version="1.0" encoding="iso-8859-1"?>
<!-- Generator: Adobe Illustrator 19.0.0, SVG Export Plug-In . SVG Version: 6.00 Build 0)  -->
<svg xmlns="http://www.w3.org/2000/svg" xmlns:xlink="http://www.w3.org/1999/xlink" version="1.1" id="Layer_1" x="0px" y="0px" viewBox="0 0 512 512" style="enable-background:new 0 0 512 512;" xml:space="preserve">
<path style="fill:#36C8E3;" d="M479.726,280.437c0,114.466-85.983,208.869-196.879,222.13c-6.397,0.763-12.874,1.261-19.434,1.474  c-2.461,0.082-4.932,0.122-7.414,0.122c-123.558,0-223.726-100.168-223.726-223.726c0-64.413,27.224-122.469,70.799-163.289  c20.745-19.443,45.193-34.973,72.183-45.416c25.047-9.702,52.271-15.02,80.744-15.02c31.657,0,61.779,6.569,89.064,18.437  c24.925,10.82,47.491,26.053,66.721,44.725C453.693,160.53,479.726,217.438,479.726,280.437z"/>
<path style="fill:#2A8CBD;" d="M52.613,280.437c0-64.413,27.224-122.469,70.799-163.289c20.745-19.443,45.193-34.973,72.183-45.416  c22.008-8.524,45.695-13.661,70.436-14.783c-3.326-0.146-6.667-0.236-10.03-0.236c-28.475,0-55.697,5.319-80.744,15.02  c-26.99,10.444-51.436,25.973-72.183,45.416c-43.575,40.82-70.799,98.877-70.799,163.289c0,123.557,100.168,223.725,223.726,223.725  c2.482,0,4.953-0.041,7.414-0.122c0.913-0.03,1.822-0.078,2.732-0.119C147.32,498.592,52.613,400.577,52.613,280.437z"/>
<g>
	<path style="fill:#E9F2FF;" d="M313.996,172.754v6.945c0,1.038-0.793,1.912-1.82,2.024l-17.329,1.831   c-0.132,0.02-0.264,0.041-0.387,0.081l-21.315,6.58c-0.651,0.204-1.149,0.712-1.343,1.363l-1.953,6.59   c-0.316,1.057,0.264,2.166,1.311,2.512l7.332,2.43c0.438,0.142,0.915,0.133,1.352-0.03l8.034-3.021   c0.518-0.193,1.098-0.163,1.597,0.071l10.007,4.79c0.61,0.295,1.038,0.864,1.139,1.536l0.702,4.678   c0.112,0.763-0.224,1.526-0.855,1.973l-5.125,3.539c-0.295,0.204-0.63,0.325-0.997,0.356l-21.467,1.739   c-0.498,0.041-0.967,0.264-1.311,0.631l-13.048,13.667c-0.204,0.213-0.356,0.468-0.447,0.752l-3.823,11.247   c-0.172,0.529-0.569,0.956-1.078,1.19l-9.152,4.169c-0.366,0.163-0.671,0.427-0.885,0.763l-5.512,8.787   c-0.406,0.641-0.417,1.454-0.041,2.104l6.569,11.207c0.702,1.19,0.02,2.725-1.332,3.021l-4.149,0.875   c-0.875,0.183-1.779-0.234-2.207-1.027l-4.343-8.034c-0.183-0.335-0.447-0.621-0.783-0.804l-6.213-3.529   c-0.438-0.244-9.173-2.645-11.847-3.376c-0.488-0.142-1.017-0.081-1.474,0.153l-7.414,3.874c-0.437,0.234-0.946,0.295-1.424,0.173   l-8.858-2.177c-0.417-0.101-0.854-0.071-1.251,0.092l-7.891,3.204c-1.251,0.509-1.668,2.074-0.823,3.142l17.46,22.067   c0.986,1.261,2.97,0.926,3.509-0.58l1.027-2.878c0.478-1.373,2.207-1.81,3.275-0.834l4.688,4.251   c0.387,0.355,0.63,0.843,0.661,1.372l0.245,3.865c0.03,0.488,0.244,0.946,0.58,1.291l7.973,8.125   c0.183,0.193,0.335,0.417,0.427,0.671l4.007,9.966c0.172,0.417,0.478,0.773,0.864,0.997l9.885,5.787   c1.2,0.712,1.363,2.38,0.316,3.285c-1.668,1.453-3.946,3.346-5.176,4.373c-0.539,0.447-1.272,0.58-1.932,0.356l-11.095-3.702   c-0.478-0.153-0.885-0.488-1.128-0.935l-2.634-4.698c-0.193-0.356-0.488-0.641-0.844-0.823l-22.129-11.409   c-0.163-0.082-0.335-0.142-0.509-0.183l-20.197-4.251c-0.631-0.132-1.169-0.549-1.434-1.139l-14.634-31.932   c-0.122-0.264-0.305-0.509-0.529-0.701l-30.101-25.759c-0.325-0.285-0.559-0.661-0.661-1.078l-5.156-21.62   c-0.071-0.295-0.071-0.6-0.01-0.894l5.258-24.65c0.02-0.133,0.061-0.254,0.112-0.376l6.793-15.966   c0.193-0.468,0.213-0.986,0.051-1.454l-5.949-17.39c-0.071-0.193-0.101-0.396-0.112-0.6l-0.712-24.141   c-0.01-0.58-0.275-1.119-0.722-1.495l-21.722-18.182c-0.193-0.163-0.417-0.295-0.651-0.366l-0.163-0.061   c20.745-19.443,45.193-34.973,72.183-45.416l0.722,3.427c0.142,0.681,0.63,1.251,1.281,1.495l41.176,15.254   c0.213,0.082,0.447,0.122,0.671,0.132l13.2,0.204c1.068,0.02,1.973-0.804,2.054-1.871l0.712-9.132   c0.03-0.335,0.142-0.671,0.326-0.956l8.37-12.762c0.641-0.986,1.983-1.22,2.918-0.518l13.383,10.037   c0.346,0.264,0.6,0.641,0.732,1.057l5.166,17.817c0.244,0.834-0.061,1.719-0.763,2.227l-37.261,26.614   c-0.529,0.376-0.844,0.997-0.844,1.657v16.353c0,0.295,0.061,0.59,0.193,0.864l10.658,22.739c0.285,0.6,0.844,1.027,1.495,1.139   l19.86,3.488c0.793,0.132,1.586-0.204,2.044-0.864l16.972-25.047c0.163-0.244,0.397-0.458,0.651-0.61l10.79-6.315   c0.631-0.366,1.403-0.376,2.033-0.01l11.187,6.356c0.417,0.234,0.732,0.6,0.895,1.047l9.986,26.481   C313.945,172.265,313.996,172.51,313.996,172.754z"/>
	<path style="fill:#E9F2FF;" d="M356.321,387.155v6.112c0,0.406-0.122,0.793-0.335,1.128l-6.885,10.373   c-0.133,0.193-0.234,0.406-0.285,0.641l-6.183,25.26c-0.183,0.722-0.732,1.282-1.444,1.474l-13.555,3.722   c-0.712,0.204-1.261,0.763-1.434,1.474l-2.695,10.953c-0.02,0.101-0.051,0.204-0.092,0.295l-9.01,21.895   c-0.275,0.671-0.905,1.149-1.627,1.241l-9.834,1.21c-0.967,0.122-1.708,0.915-1.779,1.882l-0.701,10.373   c-0.041,0.651-0.406,1.252-0.966,1.597l-7.82,4.79c-0.204,0.122-0.376,0.284-0.529,0.468l-8.299,10.525   c-6.397,0.763-12.874,1.261-19.434,1.474l0.172-0.681c0.092-0.356,0.082-0.722-0.02-1.068l-3.112-10.719   c-0.02-0.061-0.03-0.112-0.041-0.172l-1.515-7.556c-0.081-0.397-0.041-0.804,0.101-1.169l4.485-11.064   c0.153-0.376,0.183-0.804,0.092-1.211l-2.929-12.874c-0.02-0.092-0.041-0.183-0.051-0.275l-2.989-35.592   c-0.071-0.854-0.671-1.566-1.495-1.79l-13.129-3.569c-0.671-0.183-1.21-0.701-1.414-1.373l-4.973-16.505   c-0.061-0.213-0.163-0.417-0.295-0.59l-7.667-10.769c-0.509-0.712-0.509-1.678,0.02-2.39l2.888-3.905   c0.447-0.61,0.529-1.423,0.193-2.105l-1.474-3c-0.346-0.692-0.254-1.526,0.213-2.136l9.874-12.782   c0.275-0.356,0.427-0.793,0.427-1.241v-13.322c0-0.763,0.427-1.453,1.098-1.81l12.61-6.457c0.885-0.458,1.962-0.203,2.563,0.59   l2.227,2.98c0.335,0.447,0.834,0.731,1.383,0.804l14.593,1.779c0.234,0.03,0.468,0.101,0.681,0.213l36.488,18.915   c0.63,0.335,1.047,0.976,1.088,1.698l0.325,5.767c0.061,1.139,1.057,2.003,2.196,1.912l9.64-0.763   c0.356-0.03,0.702,0.03,1.027,0.183l28.454,13.321C355.863,385.649,356.321,386.371,356.321,387.155z"/>
	<path style="fill:#E9F2FF;" d="M411.785,119.873l-1.382,3.285c-0.021,0.051-0.051,0.112-0.071,0.183l-5.796,18.569   c-0.234,0.742-0.855,1.281-1.617,1.403l-21.051,3.488c-0.478,0.071-0.905,0.325-1.22,0.692l-9.732,11.501   c-0.041,0.041-0.071,0.082-0.112,0.132l-11.116,15.61c-0.478,0.681-1.332,0.997-2.146,0.793l-7.759-1.942   c-0.855-0.224-1.474-0.967-1.536-1.841l-1.607-24.427c-0.02-0.316,0.03-0.641,0.163-0.935l6.692-15.457   c0.295-0.692,0.183-1.485-0.284-2.074l-6.204-7.79c-0.305-0.376-0.458-0.844-0.447-1.332l0.621-20.481   c0.021-0.712-0.325-1.382-0.926-1.769l-12.814-8.309c-0.58-0.376-0.926-1.017-0.926-1.708V80.12c0-1.027,0.763-1.891,1.79-2.014   l8.969-1.088c0.894-0.112,1.607-0.793,1.76-1.678l0.03-0.193C369.989,85.968,392.555,101.201,411.785,119.873z"/>
</g>
<path style="fill:#FFD359;" d="M233.627,68.558c0,49.355-49.215,92.062-59.029,100.089c-0.987,0.807-2.398,0.81-3.388,0.007  c-9.829-7.97-59.024-50.348-59.024-100.096c0-33.535,27.186-60.721,60.721-60.721S233.627,35.023,233.627,68.558z"/>
<path style="fill:#DB9840;" d="M132.524,68.558c0-30.068,21.86-55.016,50.551-59.856c-3.308-0.558-6.702-0.864-10.169-0.864  c-33.535,0-60.721,27.186-60.721,60.721c0,49.748,49.195,92.124,59.024,100.096c0.991,0.802,2.401,0.8,3.388-0.007  c1.74-1.422,4.721-3.939,8.442-7.384C165.743,145.339,132.524,109.439,132.524,68.558z"/>
<circle style="fill:#FF5948;" cx="172.91" cy="68.556" r="37.658"/>
<path d="M47.203,335.16c8.758,9.338,19.946,18.072,33.383,25.936c1.243,0.727,2.604,1.073,3.948,1.073  c2.691,0,5.31-1.389,6.768-3.881c2.185-3.736,0.928-8.536-2.806-10.722c-29.903-17.503-46.892-39.055-48.187-60.962  c-0.056-2.05-0.087-4.105-0.087-6.166c0-30.391,6.183-59.77,18.377-87.322c10.875-24.575,26.028-46.599,45.071-65.569l14.971,12.537  l0.633,21.542c0.002,0.057,0.004,0.114,0.007,0.17c0.051,0.984,0.236,1.93,0.555,2.814l5.199,15.221l-5.92,13.903  c-0.056,0.132-0.109,0.264-0.157,0.399c-0.129,0.353-0.304,0.877-0.429,1.543l-5.221,24.5c-0.296,1.373-0.3,2.771-0.011,4.156  c0.016,0.073,0.031,0.146,0.049,0.218l5.18,21.708c0.497,1.982,1.574,3.739,3.163,5.122l29.127,24.932l14.071,30.729  c1.297,2.888,3.923,4.977,6.955,5.579l19.404,4.088l19.871,10.241l1.778,3.178c1.202,2.163,3.152,3.785,5.498,4.569l11.126,3.71  c1.028,0.338,2.08,0.503,3.122,0.503c2.277,0,4.498-0.792,6.288-2.302l0.871-0.729c1.298-1.086,3.049-2.553,4.381-3.71  c2.393-2.06,3.654-5.17,3.376-8.321c-0.28-3.168-2.082-6.027-4.849-7.663l-8.168-4.786l-3.252-8.08  c-0.487-1.242-1.235-2.392-2.121-3.277l-6.452-6.584l-0.104-1.674c-0.153-2.558-1.282-4.932-3.22-6.718l-4.699-4.27  c-2.456-2.217-5.836-3.053-9.045-2.236c-1.016,0.259-1.97,0.674-2.83,1.215l-7.041-8.903l5.311,1.304  c2.34,0.595,4.809,0.304,6.965-0.823l5.37-2.811c2.475,0.684,6.889,1.909,8.494,2.398l4.119,2.334l3.544,6.57  c2.068,3.835,6.482,5.88,10.71,4.973l4.146-0.867c0.039-0.007,0.076-0.017,0.115-0.024c3.076-0.692,5.659-2.837,6.911-5.735  c1.246-2.889,1.035-6.226-0.545-8.894l-4.781-8.161l2.712-4.322l7.657-3.494c2.43-1.143,4.315-3.243,5.171-5.763l3.822-11.254  c1.391-4.098-0.8-8.549-4.896-9.942c-4.093-1.389-8.544,0.8-9.937,4.898l-3.013,8.872l-6.794,3.099  c-1.807,0.792-3.31,2.097-4.344,3.76l-5.475,8.726c-0.378,0.591-0.689,1.212-0.929,1.851l-1.089-0.618  c-1.066-0.607-1.229-0.701-12.261-3.749l-1.316-0.365c-2.363-0.671-4.89-0.428-7.12,0.684c-0.043,0.022-0.086,0.043-0.129,0.066  l-5.452,2.855l-6.703-1.645c-2.027-0.505-4.197-0.345-6.123,0.449l-7.868,3.191c-2.861,1.168-5.036,3.65-5.818,6.639  c-0.783,2.987-0.102,6.216,1.81,8.625l17.432,22.043c2.212,2.821,5.774,4.22,9.318,3.653c0.964-0.155,1.888-0.451,2.743-0.867  c0.436,1.619,1.281,3.116,2.482,4.353l7.146,7.291l1.146,2.85l-20.648-10.642c-0.711-0.355-1.458-0.627-2.219-0.806  c-0.061-0.015-0.121-0.028-0.183-0.041l-17.331-3.651l-13.401-29.269c-0.02-0.043-0.04-0.087-0.062-0.13  c-0.566-1.18-1.355-2.231-2.345-3.124c-0.051-0.046-0.103-0.092-0.155-0.137l-28.657-24.531l-4.411-18.487l4.884-22.917  l6.548-15.381c0.024-0.055,0.047-0.11,0.069-0.166c0.892-2.238,0.951-4.696,0.164-6.934l-5.651-16.548l-0.531-18.056  c13.339,16.85,27.121,28.621,31.94,32.53c1.922,1.559,4.273,2.338,6.624,2.338c2.365,0,4.729-0.789,6.656-2.366  c5.767-4.718,24.368-20.776,39.683-43.232v11.284c0,1.489,0.328,2.926,0.938,4.191l10.641,22.737  c0.02,0.045,0.042,0.089,0.063,0.133c1.397,2.844,4.087,4.864,7.178,5.401l19.843,3.491c0.048,0.008,0.095,0.017,0.143,0.023  c3.726,0.586,7.522-1.032,9.68-4.118c0.022-0.031,0.044-0.064,0.065-0.095l16.223-23.96l6.757-3.957l6.45,3.667l8.867,23.515v0.684  l-12.127,1.287c-0.131,0.014-0.287,0.034-0.417,0.056c-0.429,0.067-0.851,0.153-1.215,0.253c-0.079,0.022-0.159,0.045-0.238,0.069  l-21.4,6.612c-3.098,1.001-5.507,3.458-6.454,6.607l-1.919,6.507c-1.572,5.129,1.184,10.504,6.336,12.256l7.317,2.42  c2.147,0.714,4.494,0.661,6.576-0.133l5.716-2.149l3.086,1.475c-3.098,1.253-5.16,4.415-4.866,7.92  c0.343,4.091,3.766,7.184,7.796,7.183c0.219,0,0.441-0.009,0.664-0.027c1.691-0.142,3.33-0.723,4.789-1.716l5.127-3.542  c0.038-0.026,0.075-0.053,0.113-0.08c3.003-2.154,4.555-5.761,4.04-9.503l-0.707-4.727c-0.491-3.157-2.5-5.901-5.375-7.338  c-0.042-0.021-0.084-0.041-0.124-0.062l-10.005-4.786c-0.037-0.018-0.073-0.034-0.109-0.051c-0.299-0.138-0.603-0.259-0.91-0.367  l4.366-1.348l16.758-1.779c5.046-0.518,8.85-4.737,8.85-9.813v-6.949c0-1.163-0.2-2.305-0.629-3.488l-9.974-26.448  c-0.801-2.155-2.345-3.972-4.368-5.132l-11.146-6.337c-3.023-1.735-6.789-1.732-9.892,0.045l-10.858,6.359  c-1.202,0.722-2.258,1.714-3.104,2.936l-14.858,21.943l-13.199-2.323l-8.82-18.844v-12.077l34.81-24.876  c3.388-2.421,4.888-6.747,3.729-10.785l-5.189-17.882c-0.599-1.998-1.844-3.792-3.531-5.071l-8.286-6.224  c23.774,0.051,46.93,3.902,69.071,11.46c-0.578,1.257-0.907,2.649-0.907,4.112v7.342c0,3.357,1.679,6.452,4.496,8.284l10.065,6.53  l-0.523,17.29c-0.049,2.345,0.732,4.631,2.151,6.378l4.038,5.073l-5.266,12.173c-0.644,1.442-0.929,3.045-0.825,4.644l1.607,24.459  c0.296,4.228,3.253,7.794,7.446,8.896l7.753,1.941c0.787,0.196,1.584,0.292,2.375,0.292c3.165,0,6.222-1.526,8.054-4.141  l10.916-15.338l8.254-9.761l18.9-3.133c3.708-0.596,6.715-3.197,7.85-6.805l3.047-9.767c11.591,12.626,21.633,26.558,29.932,41.558  c1.429,2.584,4.103,4.042,6.86,4.042c1.283,0,2.584-0.316,3.787-0.981c3.785-2.096,5.153-6.865,3.058-10.652  c-11.066-20-25.016-38.236-41.457-54.196c-20.147-19.577-43.37-35.151-69.016-46.287C319.031,55.293,288.028,48.87,256,48.87  c-5.735,0-11.507,0.223-17.24,0.646C230.49,20.951,204.127,0,172.948,0c-37.782,0-68.522,30.756-68.522,68.558  c0,11.112,2.249,21.842,5.893,31.945c-4.287,3.476-8.486,7.135-12.528,10.922l0,0l0,0c-22.873,21.441-40.878,46.791-53.515,75.345  c-13.083,29.563-19.717,61.077-19.717,93.669c0,0.898,0.026,1.791,0.037,2.686c-0.025,0.257-0.04,0.516-0.04,0.78  c0,1.15,0.044,2.297,0.108,3.443c0.929,32.195,8.353,63.186,22.113,92.214c1.341,2.826,4.151,4.481,7.082,4.481  c1.125,0,2.268-0.243,3.351-0.759c3.909-1.855,5.575-6.529,3.721-10.439C55.142,360.638,50.572,348.051,47.203,335.16z   M115.256,116.81c0.167-0.144,0.331-0.292,0.499-0.435c0.371-0.318,0.748-0.624,1.12-0.938c0.875,1.694,1.783,3.36,2.716,5.003  L115.256,116.81z M229.722,113.859c2.337-4.647,4.435-9.466,6.184-14.432c3.424-1.332,5.969-4.562,6.275-8.447l0.595-7.654  l4.161-6.346l6.876,5.165l3.485,12.008L229.722,113.859z M380.557,139.064c-2.284,0.364-4.382,1.539-5.954,3.367l-9.624,11.381  c-0.147,0.165-0.264,0.309-0.352,0.419c-0.092,0.114-0.18,0.232-0.264,0.35l-8.644,12.147l-1.216-18.519l6.146-14.206  c1.423-3.332,0.906-7.171-1.36-10.033l-4.881-6.133l0.556-18.364c0.098-3.435-1.63-6.723-4.494-8.569l-8.92-5.787l2.656-0.323  c0.724-0.091,1.423-0.257,2.088-0.492c0.498,0.23,0.992,0.47,1.488,0.704c0.86,0.404,1.721,0.808,2.576,1.224  c0.665,0.323,1.324,0.656,1.984,0.986c0.694,0.347,1.389,0.692,2.079,1.046c0.692,0.355,1.38,0.718,2.068,1.079  c0.65,0.343,1.3,0.686,1.947,1.035c0.701,0.378,1.399,0.762,2.095,1.147c0.623,0.346,1.244,0.695,1.864,1.046  c0.705,0.4,1.41,0.802,2.11,1.21c0.599,0.349,1.194,0.704,1.79,1.058c0.708,0.422,1.418,0.843,2.121,1.273  c0.567,0.347,1.131,0.703,1.695,1.055c0.722,0.45,1.446,0.898,2.163,1.357c0.367,0.235,0.727,0.478,1.093,0.715  c1.554,1.009,3.093,2.039,4.621,3.089c0.512,0.351,1.026,0.698,1.534,1.054c0.697,0.488,1.388,0.986,2.079,1.483  c0.539,0.387,1.078,0.772,1.613,1.164c0.675,0.494,1.346,0.996,2.016,1.498c0.545,0.41,1.091,0.82,1.633,1.235  c0.654,0.501,1.306,1.005,1.955,1.514c0.551,0.432,1.099,0.867,1.646,1.304c0.634,0.507,1.269,1.016,1.898,1.531  c0.56,0.459,1.116,0.924,1.673,1.388c0.606,0.506,1.213,1.01,1.815,1.523c0.61,0.521,1.214,1.051,1.819,1.58  c0.537,0.468,1.077,0.932,1.611,1.406c1.079,0.961,2.149,1.934,3.212,2.917l-4.442,14.238L380.557,139.064z M172.948,15.673  c29.145,0,52.856,23.723,52.856,52.884c0,6.892-1.075,13.96-3.182,21.171c-0.042,0.125-0.071,0.255-0.107,0.383  c-3.767,12.683-10.759,25.814-20.942,39.253c-10.759,14.202-22.462,25.105-28.647,30.471c-6.185-5.327-17.873-16.15-28.619-30.305  c-16.069-21.166-24.218-41.682-24.218-60.974C120.092,39.397,143.803,15.673,172.948,15.673z"/>
<path d="M131.228,366.694c-4.093-1.393-8.544,0.798-9.938,4.896s0.797,8.549,4.893,9.943c20.437,6.955,42.846,12.187,66.604,15.551  c0.372,0.053,0.741,0.078,1.108,0.078c3.839,0,7.191-2.826,7.745-6.74c0.607-4.285-2.374-8.25-6.658-8.858  C172.192,378.339,150.741,373.336,131.228,366.694z"/>
<path d="M487.412,283.254c0.011-0.939,0.032-1.876,0.032-2.818c0-25.374-4.077-50.318-12.12-74.14  c-1.383-4.1-5.829-6.302-9.928-4.916c-4.098,1.384-6.298,5.832-4.914,9.933c7.495,22.201,11.295,45.458,11.295,69.123  c0,2.229-0.046,4.447-0.114,6.66c-2.155,31.391-35.977,61.023-91.413,79.773c-4.099,1.387-6.298,5.834-4.913,9.934  c1.104,3.268,4.152,5.33,7.42,5.33c0.832,0,1.678-0.134,2.509-0.414c30.271-10.239,55.561-24.136,73.137-40.19  c2.235-2.042,4.335-4.121,6.321-6.231c-19.926,75.993-80.293,136.369-157.999,155.04c0.879-1.38,1.421-2.964,1.525-4.622  l0.378-5.591l5.103-0.628c3.517-0.448,6.539-2.761,7.883-6.032l8.991-21.859c0.207-0.494,0.371-1.009,0.491-1.537l1.856-7.55  l10.237-2.811c3.436-0.931,6.115-3.657,7.005-7.175l5.937-24.266l6.328-9.539c0.028-0.044,0.057-0.088,0.086-0.132  c1.018-1.603,1.555-3.446,1.555-5.331v-6.113c0-3.802-2.223-7.307-5.681-8.938l-28.426-13.316c-1.566-0.737-3.309-1.05-4.977-0.903  l-3.729,0.295c-0.246-3.366-2.236-6.425-5.294-8.054l-36.425-18.892c-1.045-0.55-2.169-0.904-3.38-1.058l-12.123-1.479l-0.777-1.039  c-2.911-3.843-8.123-5.028-12.375-2.832l-12.696,6.507c-3.25,1.72-5.268,5.068-5.268,8.736v11.336l-8.682,11.245  c-2.239,2.926-2.658,6.918-1.11,10.184l-0.778,1.053c-2.564,3.451-2.606,8.121-0.113,11.609l7.119,10.005l4.696,15.592  c0.992,3.264,3.547,5.751,6.851,6.657l9.207,2.504l2.649,31.542c0.006,0.069,0.013,0.14,0.021,0.209  c0.041,0.369,0.106,0.736,0.197,1.147l2.526,11.104l-3.794,9.363c-0.016,0.038-0.029,0.076-0.045,0.114  c-0.688,1.776-0.852,3.699-0.478,5.54l1.499,7.477c0.062,0.333,0.139,0.654,0.235,0.97l0.714,2.459  c-33.954-0.37-67.62-8.778-97.508-24.414c-29.6-15.486-55.608-38.029-75.212-65.187c-2.533-3.511-7.43-4.299-10.935-1.765  c-3.508,2.534-4.297,7.432-1.765,10.941c21.019,29.12,48.909,53.292,80.651,69.899C181.703,502.928,218.738,512,256,512  c2.554,0,5.135-0.043,7.664-0.126c6.671-0.217,13.433-0.729,20.099-1.525c113.649-13.597,199.932-108.573,203.549-222.468  c0.086-1.323,0.133-2.648,0.133-3.975C487.445,283.687,487.43,283.47,487.412,283.254z M248.148,409.581l-4.032-13.389  c-0.316-1.072-0.809-2.07-1.469-2.969l-5.177-7.277l0.404-0.548c2.128-2.908,2.51-6.695,1.022-9.943l7.664-9.928  c1.326-1.72,2.056-3.86,2.056-6.025v-9.778l5.153-2.639c1.552,1.616,3.645,2.682,5.936,2.982l13.536,1.651l32.602,16.909  l0.139,2.447c0.139,2.64,1.362,5.156,3.352,6.898c1.995,1.746,4.653,2.617,7.281,2.413l8.117-0.642l23.704,11.103v0.681  l-5.884,8.869c-0.67,0.993-1.143,2.073-1.409,3.214l-5.351,21.878l-10.357,2.845c-3.409,0.979-6.047,3.721-6.88,7.136l-2.599,10.568  l-7.537,18.323l-6.488,0.798c-4.641,0.588-8.261,4.406-8.609,9.126l-0.499,7.382l-5.198,3.186c-0.949,0.569-1.8,1.307-2.532,2.192  c-0.04,0.048-0.078,0.096-0.117,0.145l-6.258,7.941c-0.258,0.026-0.514,0.057-0.772,0.084c-0.695,0.07-1.39,0.133-2.086,0.196  c-0.83,0.076-1.659,0.149-2.49,0.216c-0.693,0.055-1.387,0.104-2.079,0.154c-0.479,0.033-0.958,0.063-1.437,0.093l-1.81-6.236  l-1.131-5.641l3.827-9.45c0.749-1.857,0.914-3.881,0.467-5.883l-2.849-12.535l-2.95-35.122c-0.344-4.12-3.256-7.616-7.244-8.699  L248.148,409.581z"/>
<path d="M218.423,68.558c0-25.088-20.4-45.498-45.475-45.498s-45.475,20.41-45.475,45.498c0,25.087,20.4,45.497,45.475,45.497  S218.423,93.645,218.423,68.558z M143.14,68.558c0-16.445,13.373-29.825,29.809-29.825s29.809,13.38,29.809,29.825  s-13.373,29.823-29.809,29.823S143.14,85.003,143.14,68.558z"/>
<path d="M181.614,80.252v-3.857h3.857c4.327,0,7.833-3.508,7.833-7.837s-3.507-7.837-7.833-7.837h-3.857v-3.859  c0-4.329-3.507-7.837-7.833-7.837c-4.327,0-7.833,3.508-7.833,7.837v3.858h-3.857c-4.326,0-7.833,3.508-7.833,7.837  c0,4.329,3.507,7.837,7.833,7.837h3.857v3.857c0,4.329,3.507,7.837,7.833,7.837C178.107,88.089,181.614,84.58,181.614,80.252z"/>
<g>
</g>
<g>
</g>
<g>
</g>
<g>
</g>
<g>
</g>
<g>
</g>
<g>
</g>
<g>
</g>
<g>
</g>
<g>
</g>
<g>
</g>
<g>
</g>
<g>
</g>
<g>
</g>
<g>
</g>
</svg>
